# xmcd
#
# Track frame offsets: 
#        150
#        14968
#        32231
#        46425
#        62722
#        81302
#        104479
#        120210
#        137285
#        150853
#        167157
#        185529
#
# Disc length: 2831 seconds
#
# Revision: 1
# Processed by: cddbd v1.5.2PL0 Copyright (c) Steve Scherf et al.
# Submitted via: ExactAudioCopy v0.99pb4
#
DISCID=990b0d0c
DTITLE=Mayi, Lila - Gypsy Woman
DYEAR=2007
DGENRE=New Age
TTITLE0=Como Siento Yo
TTITLE1=De Mais Ninguem
TTITLE2=Cinque Terre
TTITLE3=Bem Leve
TTITLE4=Johnny
TTITLE5=Para Ver As Meninas
TTITLE6=Perdi La Voz
TTITLE7=Nuages Sulle Notte
TTITLE8=La Calle Llueve Estrellas
TTITLE9=Quiero Quererte
TTITLE10=Gypsy Fantasy
TTITLE11=Danca Da Solidao
EXTD=YEAR: 2007
EXTT0=
EXTT1=
EXTT2=
EXTT3=
EXTT4=
EXTT5=
EXTT6=
EXTT7=
EXTT8=
EXTT9=
EXTT10=
EXTT11=
PLAYORDER=
